<?xml version="1.0" encoding="UTF-8"?>
<svg xmlns="http://www.w3.org/2000/svg" xmlns:xlink="http://www.w3.org/1999/xlink" width="60px" height="60px" viewBox="0 0 60 60" version="1.1">
<g id="surface1">
<path style=" stroke:none;fill-rule:nonzero;fill:rgb(0%,0%,0%);fill-opacity:1;" d="M 28.019531 6.070312 C 24.324219 6.46875 21.347656 7.355469 18.589844 8.878906 C 16.402344 10.09375 15.109375 11.050781 13.332031 12.769531 C 8.796875 17.171875 6.3125 22.703125 6.035156 28.980469 C 5.675781 37.355469 9.742188 45.324219 16.753906 49.980469 C 22.957031 54.097656 30.539062 55.078125 37.738281 52.667969 C 43.679688 50.6875 48.683594 46.234375 51.539062 40.390625 C 55.199219 32.929688 54.625 23.832031 50.050781 16.882812 C 46.285156 11.171875 40.390625 7.34375 33.71875 6.289062 C 32.59375 6.121094 28.945312 5.976562 28.019531 6.070312 Z M 32.230469 7.570312 C 41.953125 8.519531 50.101562 15.839844 52.019531 25.367188 C 53.21875 31.320312 52.117188 37.246094 48.863281 42.238281 C 46.570312 45.769531 43.1875 48.71875 39.492188 50.425781 C 34.273438 52.824219 28.234375 53.183594 22.945312 51.40625 C 15.058594 48.757812 9.289062 42.121094 7.789062 33.960938 C 7.429688 31.992188 7.390625 28.054688 7.714844 26.304688 C 8.617188 21.550781 10.523438 17.761719 13.679688 14.484375 C 16.402344 11.640625 19.117188 9.886719 22.691406 8.664062 C 25.753906 7.609375 28.90625 7.246094 32.230469 7.570312 Z M 32.230469 7.570312 "/>
<path style=" stroke:none;fill-rule:nonzero;fill:rgb(0%,0%,0%);fill-opacity:1;" d="M 23.496094 25.476562 C 22.992188 25.558594 22.546875 25.65625 22.5 25.691406 C 22.464844 25.726562 22.765625 26.195312 23.171875 26.710938 C 23.578125 27.226562 23.976562 27.757812 24.058594 27.875 C 24.15625 28.007812 24.324219 28.078125 24.480469 28.054688 C 24.71875 28.019531 24.683594 27.949219 24.058594 27.121094 L 23.386719 26.21875 L 23.84375 26.136719 C 24.539062 26.015625 26.578125 26.027344 27.71875 26.160156 C 29.207031 26.339844 31.546875 26.953125 33.085938 27.550781 C 33.816406 27.839844 34.570312 28.078125 34.765625 28.078125 L 35.101562 28.078125 L 34.738281 27.828125 C 33.539062 27.011719 31.488281 26.183594 29.519531 25.726562 C 27.984375 25.367188 24.972656 25.234375 23.496094 25.476562 Z M 23.496094 25.476562 "/>
<path style=" stroke:none;fill-rule:nonzero;fill:rgb(0%,0%,0%);fill-opacity:1;" d="M 20.519531 25.921875 C 18.839844 26.207031 17.328125 26.566406 16.019531 27 C 14.484375 27.515625 14.410156 27.601562 15.480469 27.601562 C 15.972656 27.601562 16.726562 27.660156 17.160156 27.71875 C 18.011719 27.863281 19.835938 28.320312 19.777344 28.390625 C 19.753906 28.414062 19.246094 28.355469 18.660156 28.261719 C 16.921875 27.972656 14.113281 27.816406 12.394531 27.898438 L 10.800781 27.984375 L 10.800781 28.777344 C 10.800781 29.4375 10.753906 29.617188 10.511719 29.867188 C 10.355469 30.046875 10.140625 30.324219 10.019531 30.503906 L 9.816406 30.839844 L 10.597656 30.839844 C 11.171875 30.839844 11.710938 30.730469 12.625 30.421875 C 14.351562 29.84375 15.707031 29.628906 17.964844 29.554688 C 20.722656 29.460938 23.230469 29.832031 25.019531 30.601562 C 25.414062 30.769531 25.800781 30.839844 26.207031 30.816406 L 26.820312 30.78125 L 25.703125 30.179688 L 24.589844 29.578125 L 25.042969 29.472656 C 25.789062 29.292969 39.40625 29.316406 41.160156 29.496094 C 45 29.890625 47.304688 30.421875 49.152344 31.320312 C 49.90625 31.691406 50.507812 31.921875 50.773438 31.921875 L 51.179688 31.90625 L 50.554688 31.332031 C 49.714844 30.539062 48.886719 30.097656 47.375 29.578125 C 44.4375 28.597656 42.15625 28.441406 30.996094 28.441406 L 22.570312 28.441406 L 21.132812 27.828125 C 20.328125 27.492188 19.65625 27.167969 19.621094 27.121094 C 19.546875 27 20.761719 26.605469 21.5625 26.460938 C 22.054688 26.386719 22.066406 26.386719 22.558594 27.011719 C 22.824219 27.359375 23.125 27.742188 23.21875 27.863281 C 23.316406 28.019531 23.484375 28.078125 23.675781 28.054688 C 23.976562 28.019531 23.953125 27.984375 23.089844 26.84375 C 22.546875 26.148438 22.105469 25.679688 21.984375 25.691406 C 21.875 25.691406 21.214844 25.800781 20.519531 25.921875 Z M 20.519531 25.921875 "/>
<path style=" stroke:none;fill-rule:nonzero;fill:rgb(0%,0%,0%);fill-opacity:1;" d="M 31.378906 29.652344 C 30.132812 29.6875 28.859375 29.734375 28.570312 29.746094 C 28.285156 29.746094 28.066406 29.785156 28.09375 29.820312 C 28.152344 29.867188 29.148438 29.941406 36.300781 30.421875 C 37.824219 30.527344 39.132812 30.636719 39.214844 30.660156 C 39.324219 30.695312 39.300781 30.816406 39.121094 31.105469 C 38.988281 31.320312 38.878906 31.609375 38.878906 31.726562 C 38.878906 31.945312 38.796875 31.957031 37.117188 31.871094 C 35.53125 31.800781 32.664062 31.644531 30.503906 31.511719 C 30.085938 31.488281 29.773438 31.488281 29.796875 31.511719 C 29.820312 31.535156 31.175781 31.835938 32.808594 32.160156 C 35.734375 32.761719 35.785156 32.761719 38.050781 32.761719 L 40.355469 32.761719 L 41.0625 31.992188 C 41.808594 31.164062 42.300781 30.816406 43.234375 30.40625 L 43.824219 30.15625 L 43.367188 30.085938 C 41.183594 29.746094 35.050781 29.519531 31.378906 29.652344 Z M 31.378906 29.652344 "/>
<path style=" stroke:none;fill-rule:nonzero;fill:rgb(0%,0%,0%);fill-opacity:1;" d="M 17.460938 30 C 17.183594 30.070312 17.160156 30.097656 17.363281 30.109375 C 18.214844 30.15625 19.570312 31.09375 20.242188 32.113281 L 20.675781 32.761719 L 25.429688 32.746094 C 28.042969 32.746094 30.132812 32.722656 30.058594 32.6875 C 30 32.664062 28.945312 32.375 27.71875 32.050781 C 26.496094 31.726562 25.03125 31.273438 24.457031 31.03125 C 23.890625 30.792969 23.027344 30.492188 22.535156 30.371094 C 20.878906 29.941406 18.382812 29.761719 17.460938 30 Z M 17.460938 30 "/>
<path style=" stroke:none;fill-rule:nonzero;fill:rgb(0%,0%,0%);fill-opacity:1;" d="M 14.21875 30.433594 C 13.476562 30.589844 12.828125 30.792969 12.253906 31.042969 C 11.785156 31.246094 11.386719 31.320312 10.789062 31.320312 C 10.320312 31.320312 9.960938 31.367188 9.960938 31.441406 C 9.960938 31.5 10.164062 31.765625 10.414062 32.015625 C 10.90625 32.507812 11.566406 32.761719 12.335938 32.761719 C 12.804688 32.761719 12.828125 32.734375 13.117188 32.125 C 13.378906 31.546875 13.859375 30.984375 14.460938 30.539062 C 14.699219 30.371094 14.664062 30.347656 14.21875 30.433594 Z M 14.21875 30.433594 "/>
<path style=" stroke:none;fill-rule:nonzero;fill:rgb(0%,0%,0%);fill-opacity:1;" d="M 11.890625 34.222656 C 11.832031 34.378906 11.578125 34.933594 11.339844 35.460938 C 10.621094 37.007812 10.632812 36.960938 11.027344 36.960938 C 11.269531 36.960938 11.398438 36.875 11.496094 36.660156 C 11.617188 36.382812 11.699219 36.359375 12.335938 36.359375 C 12.972656 36.359375 13.054688 36.382812 13.175781 36.660156 C 13.285156 36.886719 13.402344 36.960938 13.667969 36.960938 L 14.027344 36.960938 L 13.429688 35.605469 C 13.09375 34.871094 12.792969 34.1875 12.757812 34.105469 C 12.71875 34.03125 12.539062 33.960938 12.347656 33.960938 C 12.097656 33.960938 11.964844 34.03125 11.890625 34.222656 Z M 12.625 35.28125 L 12.828125 35.761719 L 11.878906 35.761719 L 12.058594 35.328125 C 12.15625 35.089844 12.238281 34.871094 12.238281 34.847656 C 12.238281 34.824219 12.277344 34.800781 12.335938 34.800781 C 12.382812 34.800781 12.515625 35.015625 12.625 35.28125 Z M 12.625 35.28125 "/>
<path style=" stroke:none;fill-rule:nonzero;fill:rgb(0%,0%,0%);fill-opacity:1;" d="M 14.640625 35.460938 L 14.640625 36.960938 L 15.347656 36.960938 L 15.382812 36.109375 L 15.421875 35.269531 L 16.117188 36.109375 C 16.632812 36.742188 16.882812 36.960938 17.113281 36.960938 L 17.398438 36.960938 L 17.398438 33.960938 L 16.691406 33.960938 L 16.65625 34.824219 L 16.621094 35.699219 L 15.910156 34.824219 C 15.394531 34.1875 15.132812 33.960938 14.929688 33.960938 L 14.640625 33.960938 Z M 14.640625 35.460938 "/>
<path style=" stroke:none;fill-rule:nonzero;fill:rgb(0%,0%,0%);fill-opacity:1;" d="M 18.023438 34.222656 C 18.046875 34.453125 18.144531 34.511719 18.515625 34.535156 L 18.960938 34.570312 L 18.960938 36.960938 L 19.679688 36.960938 L 19.679688 34.558594 L 20.160156 34.558594 C 20.59375 34.558594 20.640625 34.523438 20.640625 34.261719 L 20.640625 33.960938 L 19.308594 33.960938 C 18 33.960938 17.988281 33.960938 18.023438 34.222656 Z M 18.023438 34.222656 "/>
<path style=" stroke:none;fill-rule:nonzero;fill:rgb(0%,0%,0%);fill-opacity:1;" d="M 21.359375 35.460938 L 21.359375 36.960938 L 21.960938 36.960938 L 21.960938 33.960938 L 21.359375 33.960938 Z M 21.359375 35.460938 "/>
<path style=" stroke:none;fill-rule:nonzero;fill:rgb(0%,0%,0%);fill-opacity:1;" d="M 24.960938 35.460938 L 24.960938 36.960938 L 25.667969 36.960938 L 25.703125 36.085938 L 25.738281 35.21875 L 26.449219 36.085938 C 26.964844 36.730469 27.226562 36.960938 27.433594 36.960938 L 27.71875 36.960938 L 27.71875 33.960938 L 27.011719 33.960938 L 26.976562 34.8125 L 26.941406 35.652344 L 26.242188 34.8125 C 25.726562 34.175781 25.476562 33.960938 25.246094 33.960938 L 24.960938 33.960938 Z M 24.960938 35.460938 "/>
<path style=" stroke:none;fill-rule:nonzero;fill:rgb(0%,0%,0%);fill-opacity:1;" d="M 29.089844 34.355469 C 28.714844 34.691406 28.644531 34.847656 28.585938 35.375 C 28.535156 35.976562 28.546875 36.011719 29.015625 36.480469 C 29.449219 36.910156 29.542969 36.960938 30.121094 36.960938 C 31.175781 36.960938 31.800781 36.382812 31.800781 35.398438 C 31.800781 34.96875 31.726562 34.824219 31.332031 34.429688 C 30.898438 33.996094 30.816406 33.960938 30.191406 33.960938 C 29.59375 33.960938 29.472656 34.007812 29.089844 34.355469 Z M 30.839844 34.800781 C 30.984375 34.945312 31.078125 35.195312 31.078125 35.460938 C 31.078125 35.722656 30.984375 35.976562 30.839844 36.121094 C 30.695312 36.265625 30.445312 36.359375 30.179688 36.359375 C 29.914062 36.359375 29.664062 36.265625 29.519531 36.121094 C 29.375 35.976562 29.28125 35.722656 29.28125 35.460938 C 29.28125 35.195312 29.375 34.945312 29.519531 34.800781 C 29.664062 34.65625 29.914062 34.558594 30.179688 34.558594 C 30.445312 34.558594 30.695312 34.65625 30.839844 34.800781 Z M 30.839844 34.800781 "/>
<path style=" stroke:none;fill-rule:nonzero;fill:rgb(0%,0%,0%);fill-opacity:1;" d="M 32.640625 35.460938 L 32.640625 36.960938 L 33.359375 36.960938 L 33.359375 33.960938 L 32.640625 33.960938 Z M 32.640625 35.460938 "/>
<path style=" stroke:none;fill-rule:nonzero;fill:rgb(0%,0%,0%);fill-opacity:1;" d="M 34.5 34.261719 C 33.898438 34.859375 34.234375 35.507812 35.292969 35.761719 C 35.734375 35.867188 35.878906 35.964844 35.878906 36.132812 C 35.878906 36.457031 35.363281 36.550781 34.800781 36.324219 C 34.355469 36.15625 34.320312 36.15625 34.246094 36.382812 C 34.140625 36.742188 34.367188 36.886719 35.195312 36.9375 C 35.820312 36.972656 35.988281 36.949219 36.277344 36.71875 C 36.683594 36.394531 36.707031 35.867188 36.335938 35.519531 C 36.191406 35.386719 36.011719 35.28125 35.953125 35.28125 C 35.878906 35.28125 35.617188 35.21875 35.375 35.148438 C 35.050781 35.0625 34.921875 34.96875 34.921875 34.800781 C 34.921875 34.5 35.398438 34.367188 35.890625 34.546875 C 36.324219 34.703125 36.300781 34.703125 36.40625 34.367188 C 36.503906 34.054688 36.253906 33.960938 35.363281 33.960938 C 34.90625 33.960938 34.726562 34.019531 34.5 34.261719 Z M 34.5 34.261719 "/>
<path style=" stroke:none;fill-rule:nonzero;fill:rgb(0%,0%,0%);fill-opacity:1;" d="M 37.441406 35.460938 L 37.441406 36.960938 L 38.578125 36.960938 C 39.71875 36.960938 39.71875 36.960938 39.71875 36.660156 C 39.71875 36.371094 39.695312 36.359375 38.878906 36.359375 C 38.0625 36.359375 38.039062 36.347656 38.039062 36.058594 C 38.039062 35.773438 38.074219 35.761719 38.761719 35.761719 C 39.445312 35.761719 39.480469 35.746094 39.480469 35.460938 C 39.480469 35.171875 39.445312 35.160156 38.761719 35.160156 C 38.074219 35.160156 38.039062 35.148438 38.039062 34.859375 C 38.039062 34.585938 38.074219 34.570312 38.855469 34.535156 C 39.589844 34.5 39.660156 34.476562 39.695312 34.222656 C 39.730469 33.972656 39.707031 33.960938 38.59375 33.960938 L 37.441406 33.960938 Z M 37.441406 35.460938 "/>
<path style=" stroke:none;fill-rule:nonzero;fill:rgb(0%,0%,0%);fill-opacity:1;" d="M 41.761719 34.261719 C 41.761719 34.523438 41.808594 34.558594 42.238281 34.558594 L 42.71875 34.558594 L 42.71875 36.960938 L 43.441406 36.960938 L 43.441406 34.570312 L 43.894531 34.535156 C 44.257812 34.511719 44.351562 34.453125 44.375 34.222656 C 44.410156 33.960938 44.398438 33.960938 43.09375 33.960938 L 41.761719 33.960938 Z M 41.761719 34.261719 "/>
<path style=" stroke:none;fill-rule:nonzero;fill:rgb(0%,0%,0%);fill-opacity:1;" d="M 45 35.460938 L 45 36.960938 L 46.152344 36.960938 C 47.269531 36.960938 47.292969 36.949219 47.257812 36.683594 C 47.21875 36.445312 47.148438 36.421875 46.476562 36.382812 L 45.71875 36.347656 L 45.71875 33.960938 L 45 33.960938 Z M 45 35.460938 "/>
<path style=" stroke:none;fill-rule:nonzero;fill:rgb(0%,0%,0%);fill-opacity:1;" d="M 47.542969 34.222656 C 47.566406 34.453125 47.664062 34.511719 48.035156 34.535156 L 48.480469 34.570312 L 48.480469 36.960938 L 49.199219 36.960938 L 49.199219 34.558594 L 49.679688 34.558594 C 50.113281 34.558594 50.160156 34.523438 50.160156 34.261719 L 50.160156 33.960938 L 48.828125 33.960938 C 47.519531 33.960938 47.507812 33.960938 47.542969 34.222656 Z M 47.542969 34.222656 "/>
<path style=" stroke:none;fill-rule:nonzero;fill:rgb(0%,0%,0%);fill-opacity:1;" d="M 22.921875 35.761719 C 22.921875 35.964844 23.003906 36 23.519531 36 C 24.035156 36 24.121094 35.964844 24.121094 35.761719 C 24.121094 35.554688 24.035156 35.519531 23.519531 35.519531 C 23.003906 35.519531 22.921875 35.554688 22.921875 35.761719 Z M 22.921875 35.761719 "/>
</g>
</svg>
